<svg width="200" height="35" viewBox="0 0 200 35" fill="none" xmlns="http://www.w3.org/2000/svg">
<path d="M9.20569 0L17.0822 8.06947L14.4715 14.8259L7.87764 17.5006L0 9.43005L2.5986 2.68718L9.20569 0Z" fill="#02676C"/>
<path d="M26.3003 17.5005L34.1779 25.57L31.5672 32.3265L24.9722 35.0001L17.0957 26.9306L19.6943 20.1877L26.3003 17.5005Z" fill="#02676C"/>
<path d="M17.0957 8.0706L24.9733 0L31.5672 2.67472L34.1779 9.43005L26.3003 17.5006L19.7186 14.8384L17.0957 8.0706Z" fill="#02676C"/>
<path d="M0 25.57L7.87764 17.5005L14.4715 20.1753L17.0822 26.9306L9.20569 35.0001L2.62293 32.3389L0 25.57Z" fill="#02676C"/>
<path d="M57.3377 15.4387H47.7063V6.69972H43.4258V28.3048H47.7063V19.4366H57.3377V28.3048H61.6823V6.69972H57.3377V15.4387Z" fill="#212121"/>
<path d="M75.0296 12.7132C73.9692 12.1648 72.6842 11.8907 71.1737 11.8907C69.7263 11.8907 68.4668 12.1546 67.3964 12.6803C66.326 13.2071 65.4922 13.9435 64.894 14.8894C64.2957 15.8354 63.9972 16.9422 63.9972 18.211V18.5656H68.0886V18.211C68.0886 17.2866 68.3197 16.6476 68.7808 16.2919C69.2419 15.9373 69.9773 15.7595 70.9835 15.7595C71.9489 15.7595 72.7041 15.9101 73.2504 16.2103C73.7955 16.5117 74.0687 17.2107 74.0687 18.3062V18.8703L68.6227 19.6928C67.5313 19.8435 66.6079 20.112 65.8527 20.4994C65.0974 20.8868 64.5302 21.3921 64.1531 22.0152C63.7749 22.6394 63.5869 23.3701 63.5869 24.2084C63.5869 25.6494 64.0635 26.7449 65.0189 27.4972C65.9732 28.2494 67.1431 28.6255 68.5287 28.6255C69.5361 28.6255 70.3853 28.4964 71.0786 28.2381C71.7709 27.9798 72.358 27.6467 72.8413 27.2377C73.3234 26.8299 73.7226 26.4209 74.0377 26.012H74.1638V28.3015H78.1933V18.757C78.1933 17.3172 77.9301 16.0857 77.4059 15.065C76.8807 14.0465 76.089 13.2615 75.0296 12.7132ZM73.4395 23.9841C73.0193 24.4577 72.4951 24.7794 71.866 24.9516C71.2368 25.1238 70.6175 25.2099 70.0093 25.2099C69.2331 25.2099 68.6603 25.1079 68.2943 24.904C67.9271 24.7001 67.7436 24.3614 67.7436 23.8878C67.7436 23.5015 67.8741 23.2058 68.1372 23.0008C68.3993 22.7969 68.814 22.6519 69.3801 22.5658L74.0698 21.8407V21.8894C74.0698 22.8127 73.8597 23.5117 73.4395 23.9841Z" fill="#212121"/>
<path d="M91.154 12.2136L88.7301 19.0822L87.6597 22.2101H87.3766L86.0862 19.0822L83.3482 12.2136H78.5635L85.2236 27.6909L84.8587 28.4975C84.6066 29.0775 84.328 29.4435 84.025 29.5941C83.7209 29.7448 83.2542 29.8196 82.6239 29.8196H80.1691V33.464C80.4632 33.549 80.8558 33.6249 81.349 33.6895C81.8421 33.7541 82.3298 33.7858 82.813 33.7858C83.8414 33.7858 84.7117 33.6668 85.426 33.4312C86.1392 33.1944 86.7585 32.7707 87.2826 32.1578C87.8068 31.5449 88.29 30.7111 88.7301 29.6587L95.9376 12.2136H91.154Z" fill="#212121"/>
<path d="M107.788 12.9227C106.624 12.2351 105.212 11.8907 103.556 11.8907C101.898 11.8907 100.466 12.2351 99.2584 12.9227C98.052 13.6104 97.1342 14.5835 96.5039 15.841C95.8747 17.0985 95.5596 18.5656 95.5596 20.2422C95.5596 21.9404 95.8747 23.4188 96.5039 24.6763C97.1331 25.9338 98.0509 26.9069 99.2584 27.5946C100.465 28.2834 101.897 28.6266 103.556 28.6266C105.213 28.6266 106.624 28.2823 107.788 27.5946C108.953 26.9069 109.855 25.9338 110.495 24.6763C111.136 23.4188 111.455 21.9404 111.455 20.2422C111.455 18.5656 111.135 17.0985 110.495 15.841C109.855 14.5835 108.953 13.6115 107.788 12.9227ZM106.467 23.7258C105.911 24.392 104.94 24.7262 103.556 24.7262C102.191 24.7262 101.221 24.3931 100.644 23.7258C100.067 23.0597 99.7782 21.8985 99.7782 20.2434C99.7782 18.5882 100.067 17.4327 100.644 16.7768C101.221 16.1208 102.191 15.7934 103.556 15.7934C104.94 15.7934 105.911 16.1208 106.467 16.7768C107.023 17.4327 107.301 18.5882 107.301 20.2434C107.301 21.8985 107.022 23.0597 106.467 23.7258Z" fill="#212121"/>
<path d="M118.521 8.31194H115.153L114.301 12.2136H111.628V15.8569H114.209V23.0484C114.209 24.9403 114.706 26.2895 115.704 27.095C116.7 27.9016 118.185 28.3038 120.158 28.3038C120.682 28.3038 121.207 28.2709 121.732 28.2075C122.256 28.1429 122.707 28.0681 123.085 27.982V24.3387H121.291C120.179 24.3387 119.439 24.2424 119.072 24.0487C118.705 23.855 118.521 23.3826 118.521 22.6303V15.858H123.085V12.2147H118.521V8.31194Z" fill="#212121"/>
<path d="M143.256 17.018V16.6952C144.662 16.523 145.705 16.0347 146.388 15.2281C147.069 14.4215 147.411 13.3849 147.411 12.1161C147.411 10.8484 147.147 9.81522 146.623 9.01994C146.098 8.22467 145.333 7.63897 144.325 7.26286C143.318 6.88674 142.091 6.69868 140.643 6.69868H130.477V28.3037H141.084C142.637 28.3037 143.948 28.0613 145.019 27.5776C146.089 27.0938 146.896 26.4062 147.443 25.5146C147.988 24.623 148.261 23.5751 148.261 22.3697C148.261 20.9299 147.841 19.7154 147.001 18.7264C146.162 17.7385 144.914 17.1687 143.256 17.018ZM134.758 10.666H140.298C141.285 10.666 141.998 10.8167 142.439 11.1169C142.88 11.4182 143.1 12.0515 143.1 13.0201C143.1 13.9661 142.88 14.5892 142.439 14.8905C141.999 15.1918 141.294 15.3414 140.33 15.3414H134.759V10.666H134.758ZM143.13 23.8391C142.626 24.1733 141.892 24.3387 140.926 24.3387H134.757V19.0187H140.926C141.892 19.0187 142.626 19.1796 143.13 19.5024C143.633 19.8253 143.885 20.556 143.885 21.6957C143.886 22.7912 143.634 23.506 143.13 23.8391Z" fill="#212121"/>
<path d="M160.969 12.7132C159.909 12.1648 158.624 11.8907 157.113 11.8907C155.666 11.8907 154.406 12.1546 153.336 12.6803C152.265 13.2071 151.432 13.9435 150.833 14.8894C150.235 15.8354 149.937 16.9422 149.937 18.211V18.5656H154.028V18.211C154.028 17.2866 154.259 16.6476 154.72 16.2919C155.181 15.9373 155.917 15.7595 156.923 15.7595C157.888 15.7595 158.644 15.9101 159.19 16.2103C159.735 16.5117 160.008 17.2107 160.008 18.3062V18.8703L154.562 19.6928C153.471 19.8435 152.547 20.112 151.792 20.4994C151.037 20.8868 150.47 21.3921 150.093 22.0152C149.714 22.6394 149.526 23.3701 149.526 24.2084C149.526 25.6494 150.003 26.7449 150.958 27.4972C151.913 28.2494 153.083 28.6255 154.468 28.6255C155.476 28.6255 156.325 28.4964 157.018 28.2381C157.71 27.9798 158.297 27.6467 158.781 27.2377C159.263 26.8299 159.662 26.4209 159.977 26.012H160.103V28.3015H164.133V18.757C164.133 17.3172 163.87 16.0857 163.345 15.065C162.821 14.0465 162.028 13.2615 160.969 12.7132ZM159.38 23.9841C158.96 24.4577 158.436 24.7794 157.807 24.9516C157.177 25.1238 156.558 25.2099 155.95 25.2099C155.174 25.2099 154.601 25.1079 154.235 24.904C153.868 24.7001 153.684 24.3614 153.684 23.8878C153.684 23.5015 153.815 23.2058 154.078 23.0008C154.34 22.7969 154.755 22.6519 155.321 22.5658L160.01 21.8407V21.8894C160.009 22.8127 159.799 23.5117 159.38 23.9841Z" fill="#212121"/>
<path d="M179.454 12.7132C178.582 12.1648 177.454 11.8907 176.07 11.8907C175.105 11.8907 174.275 12.0255 173.583 12.294C172.891 12.5636 172.314 12.9443 171.851 13.4393C171.389 13.9344 171.012 14.4827 170.718 15.0843H170.561V12.2147H166.563V28.306H170.876V19.1807C170.876 18.2778 171.002 17.5743 171.254 17.0691C171.506 16.5638 171.883 16.2092 172.388 16.0053C172.891 15.8014 173.541 15.6994 174.339 15.6994C175.599 15.6994 176.464 15.9464 176.936 16.4414C177.408 16.9365 177.645 17.785 177.645 18.9893V28.3083H181.988V18.1509C181.988 16.9682 181.784 15.9045 181.374 14.9585C180.964 14.0092 180.324 13.2615 179.454 12.7132Z" fill="#212121"/>
<path d="M199.999 12.2134H194.963L191.185 18.2754H188.73V6.69966H184.419V28.3047H188.73V22.2427H191.248L194.932 28.3047H199.967L194.649 19.824L199.999 12.2134Z" fill="#212121"/>
</svg>
