<svg width="51" height="54" viewBox="0 0 51 54" fill="none" xmlns="http://www.w3.org/2000/svg">
<path d="M34.0361 4.5H16.8874C13.5366 4.50417 10.3242 5.91557 7.955 8.42453C5.58582 10.9335 4.25337 14.3351 4.25 17.883L4.25 36.0405C4.25394 39.5884 5.58693 42.9898 7.9565 45.4983C10.3261 48.0068 13.5387 49.4177 16.8895 49.4212H34.0382C37.389 49.4171 40.6014 48.0057 42.9706 45.4967C45.3398 42.9878 46.6723 39.5862 46.6756 36.0382V17.8807C46.6717 14.3328 45.3387 10.9315 42.9691 8.42294C40.5995 5.9144 37.3869 4.50357 34.0361 4.5V4.5ZM42.4086 36.0382C42.4086 37.2024 42.1921 38.3552 41.7713 39.4307C41.3505 40.5063 40.7338 41.4836 39.9564 42.3068C39.1789 43.1299 38.2559 43.7829 37.2401 44.2284C36.2243 44.674 35.1356 44.9033 34.0361 44.9033H16.8874C14.6672 44.9027 12.5382 43.9684 10.9685 42.306C9.39881 40.6435 8.517 38.389 8.517 36.0382V17.8807C8.51756 15.53 9.39991 13.2757 10.97 11.6137C12.5401 9.95168 14.6693 9.018 16.8895 9.018H34.0382C36.2584 9.0186 38.3874 9.95285 39.9571 11.6153C41.5268 13.2777 42.4086 15.5322 42.4086 17.883V36.0405V36.0382Z" fill="white"/>
<path d="M25.4614 15.3428C22.5532 15.3475 19.7654 16.573 17.7092 18.7506C15.653 20.9282 14.4961 23.8802 14.4922 26.9595C14.4956 30.0396 15.6525 32.9925 17.7092 35.1707C19.766 37.3488 22.5546 38.5744 25.4636 38.5785C28.3729 38.5749 31.1621 37.3497 33.2193 35.1715C35.2765 32.9932 36.4337 30.04 36.4371 26.9595C36.4326 23.8795 35.2746 20.927 33.217 18.7497C31.1595 16.5724 28.3704 15.348 25.4614 15.345V15.3428ZM25.4614 34.0605C23.6833 34.0605 21.978 33.3126 20.7207 31.9813C19.4634 30.6501 18.7571 28.8445 18.7571 26.9618C18.7571 25.0791 19.4634 23.2735 20.7207 21.9422C21.978 20.6109 23.6833 19.863 25.4614 19.863C27.2395 19.863 28.9448 20.6109 30.2021 21.9422C31.4595 23.2735 32.1658 25.0791 32.1658 26.9618C32.1658 28.8445 31.4595 30.6501 30.2021 31.9813C28.9448 33.3126 27.2395 34.0605 25.4614 34.0605Z" fill="white"/>
<path d="M36.4568 18.2137C37.9085 18.2137 39.0854 16.9676 39.0854 15.4305C39.0854 13.8933 37.9085 12.6472 36.4568 12.6472C35.005 12.6472 33.8281 13.8933 33.8281 15.4305C33.8281 16.9676 35.005 18.2137 36.4568 18.2137Z" fill="white"/>
</svg>
