<svg width="53" height="54" viewBox="0 0 53 54" fill="none" xmlns="http://www.w3.org/2000/svg">
<path d="M48.4931 30.8678V47.4706H39.0459V31.9793C39.0459 28.0868 37.6789 25.4318 34.2604 25.4318C31.6502 25.4318 30.0955 27.2228 29.4131 28.9531C29.1636 29.5718 29.0995 30.4336 29.0995 31.2998V47.4706H19.6479C19.6479 47.4706 19.776 21.2356 19.6479 18.5153H29.0995V22.6193L29.0377 22.7138H29.0995V22.6193C30.3539 20.6506 32.5953 17.8358 37.6149 17.8358C43.8313 17.8358 48.4931 21.9758 48.4931 30.8678ZM9.76337 4.55859C6.53258 4.55859 4.41699 6.71859 4.41699 9.56034C4.41699 12.3391 6.47074 14.5643 9.6397 14.5643H9.70153C12.9986 14.5643 15.0457 12.3391 15.0457 9.56034C14.9883 6.71859 13.0008 4.55859 9.76558 4.55859H9.76337ZM4.97791 47.4706H14.4252V18.5153H4.97791V47.4706Z" fill="white"/>
</svg>
