<svg width="54" height="54" viewBox="0 0 54 54" fill="none" xmlns="http://www.w3.org/2000/svg">
<path fill-rule="evenodd" clip-rule="evenodd" d="M49.5 27C49.5 39.4264 39.4264 49.5 27 49.5C14.5736 49.5 4.5 39.4264 4.5 27C4.5 14.5736 14.5736 4.5 27 4.5C39.4264 4.5 49.5 14.5736 49.5 27ZM27.8063 21.1105C25.6178 22.0208 21.244 23.9048 14.6848 26.7625C13.6196 27.1861 13.0617 27.6004 13.0109 28.0056C12.9251 28.6903 13.7825 28.96 14.9502 29.3271C15.1091 29.3771 15.2736 29.4288 15.4423 29.4837C16.5912 29.8571 18.1365 30.294 18.9399 30.3113C19.6686 30.3271 20.4819 30.0267 21.3799 29.41C27.5084 25.2732 30.6719 23.1822 30.8705 23.1371C31.0107 23.1053 31.2048 23.0653 31.3364 23.1822C31.468 23.2992 31.455 23.5206 31.4411 23.58C31.3561 23.9422 27.9902 27.0715 26.2483 28.6909C25.7053 29.1957 25.3201 29.5538 25.2414 29.6356C25.065 29.8188 24.8852 29.9921 24.7124 30.1587C23.6451 31.1875 22.8448 31.9591 24.7567 33.219C25.6755 33.8245 26.4107 34.3252 27.1442 34.8247C27.9453 35.3702 28.7442 35.9143 29.778 36.5919C30.0413 36.7646 30.2929 36.9439 30.5379 37.1185C31.4701 37.7831 32.3076 38.3802 33.3423 38.285C33.9435 38.2297 34.5646 37.6643 34.88 35.9782C35.6254 31.9934 37.0905 23.3596 37.4291 19.8019C37.4588 19.4901 37.4215 19.0912 37.3915 18.9161C37.3615 18.741 37.2989 18.4915 37.0713 18.3068C36.8017 18.088 36.3855 18.0419 36.1994 18.0452C35.3531 18.0601 34.0547 18.5116 27.8063 21.1105Z" fill="white"/>
</svg>
